<?xml version="1.0" encoding="utf-8"?>
<!-- Generator: Adobe Illustrator 22.0.0, SVG Export Plug-In . SVG Version: 6.00 Build 0)  -->
<svg version="1.1" id="Layer_1" xmlns="http://www.w3.org/2000/svg" xmlns:xlink="http://www.w3.org/1999/xlink" x="0px" y="0px"
	 viewBox="0 0 750 500" style="enable-background:new 0 0 750 500;" xml:space="preserve">
<style type="text/css">
	.st0{fill:#F5F5F5;}
	.st1{fill:#E0E0E0;}
	.st2{opacity:0.2;enable-background:new    ;}
	.st3{fill:#0092CA;}
	.st4{display:none;}
	.st5{display:inline;fill:#263238;}
	.st6{fill:#263238;}
	.st7{fill:#455A64;}
	.st8{fill:#B78876;}
	.st9{fill:#A36957;}
	.st10{opacity:0.3;}
	.st11{fill:#FAFAFA;}
	.st12{display:none;fill:#263238;}
	.st13{opacity:0.5;}
	.st14{fill:#FFFFFF;}
	.st15{fill:#0092CA;stroke:#0092CA;stroke-width:2;stroke-miterlimit:10;}
	.st16{fill:#263238;stroke:#0092CA;stroke-width:2;stroke-miterlimit:10;}
</style>
<g id="freepik--background-complete--inject-2">
	
		<rect x="151.5" y="143" transform="matrix(0.8312 -0.556 0.556 0.8312 -97.7944 162.7097)" class="st0" width="135" height="198.8"/>
	<polygon class="st1" points="272.4,279.7 271.1,287.5 215.4,279.5 216.6,271.6 	"/>
	<polygon class="st1" points="244.3,251.6 252.3,252.7 243.5,307.6 235.4,306.5 	"/>
	<path class="st1" d="M193,181.8c0.1,0.1-11.2,7.8-25.1,17.1s-25.3,16.8-25.4,16.7s11.2-7.8,25.1-17.1S192.9,181.6,193,181.8z"/>
	<path class="st1" d="M234.2,171.4c0.1,0.1-18.6,12.8-41.8,28.2s-42,27.9-42.1,27.8s18.6-12.8,41.8-28.3S234.1,171.3,234.2,171.4z"
		/>
	<path class="st1" d="M242.5,183.8c0.1,0.1-18.6,12.8-41.8,28.3s-42,27.9-42.1,27.8s18.6-12.8,41.8-28.3S242.4,183.6,242.5,183.8z"
		/>
	<path class="st1" d="M250.8,196.1c0.1,0.1-18.6,12.8-41.8,28.2s-42,27.9-42,27.8s18.6-12.8,41.8-28.3S250.7,196,250.8,196.1z"/>
	<path class="st1" d="M259,208.5c0.1,0.1-18.6,12.8-41.8,28.2s-42,27.9-42.1,27.8s18.6-12.8,41.8-28.2S259,208.4,259,208.5z"/>
	
		<rect x="537.7" y="250.4" transform="matrix(0.8312 -0.556 0.556 0.8312 -85.285 386.83)" class="st0" width="113.4" height="166.9"/>
	<polygon class="st1" points="639.2,365.2 638.1,371.8 591.3,365 592.4,358.4 	"/>
	<polygon class="st1" points="615.6,341.6 622.3,342.5 614.9,388.7 608.2,387.7 	"/>
	<path class="st1" d="M572.5,283c0.1,0.1-9.3,6.6-21.1,14.4s-21.3,14.1-21.4,14s9.4-6.6,21.1-14.4S572.4,282.8,572.5,283z"/>
	<path class="st1" d="M607.1,274.3c0.1,0.1-15.6,10.8-35,23.8s-35.3,23.5-35.3,23.3s15.6-10.8,35-23.8S607,274.1,607.1,274.3z"/>
	<path class="st1" d="M614.1,284.6c0.1,0.1-15.6,10.8-35,23.8s-35.3,23.4-35.3,23.3s15.6-10.7,35-23.7S614,284.5,614.1,284.6z"/>
	<path class="st1" d="M621,295c0.1,0.1-15.6,10.8-35,23.8s-35.3,23.4-35.3,23.3s15.6-10.8,35-23.8S620.9,294.9,621,295z"/>
	<path class="st1" d="M628,305.4c0.1,0.1-15.6,10.8-35,23.8s-35.3,23.4-35.3,23.3s15.6-10.8,35-23.8S627.9,305.3,628,305.4z"/>
	
		<rect x="268.3" y="118.2" transform="matrix(0.4716 -0.8818 0.8818 0.4716 31.4206 405.5206)" class="st0" width="171.7" height="116.6"/>
	<polygon class="st1" points="347.4,232.4 340.9,234.6 324.3,188.8 330.9,186.6 	"/>
	<polygon class="st1" points="357.4,199.5 359.8,206.1 314.3,221.7 312,215.1 	"/>
	<path class="st1" d="M389.7,132c-0.1,0.1-10.5-5.3-23.3-12.1s-23.1-12.5-23-12.7s10.5,5.3,23.3,12.1S389.8,131.8,389.7,132z"/>
	<path class="st1" d="M414.4,159.2c-0.1,0.1-17.3-8.9-38.5-20.3s-38.3-20.7-38.3-20.8s17.3,8.9,38.5,20.3S414.5,159.1,414.4,159.2z"
		/>
	<path class="st1" d="M408.3,170.6c-0.1,0.1-17.3-8.9-38.5-20.3s-38.3-20.7-38.3-20.8s17.3,8.9,38.5,20.3S408.4,170.4,408.3,170.6z"
		/>
	<path class="st1" d="M402.3,181.9c-0.1,0.1-17.3-8.9-38.5-20.3s-38.3-20.6-38.3-20.8s17.3,8.9,38.5,20.3S402.4,181.7,402.3,181.9z"
		/>
	<path class="st1" d="M396.2,193.2c-0.1,0.1-17.3-8.9-38.5-20.3s-38.3-20.7-38.3-20.8s17.3,8.9,38.5,20.3S396.3,193.1,396.2,193.2z"
		/>
	<rect x="394.2" class="st2" width="2.6" height="44"/>
</g>
<g id="freepik--Lamp--inject-2">
	<path class="st3" d="M335.2,97.2h120.5c0,0-11.1-53.2-61.1-53.2C350.1,44,335.2,97.2,335.2,97.2z"/>
	<rect x="394.2" class="st3" width="2.6" height="44"/>
</g>
<g id="freepik--Floor--inject-2" class="st4">
	<path class="st5" d="M663.7,439.8c0,0.1-129.3,0.3-288.7,0.3S86.3,440,86.3,439.8s129.2-0.3,288.7-0.3S663.7,439.7,663.7,439.8z"/>
</g>
<g id="freepik--Plant--inject-2">
	<path class="st3" d="M118.3,377.2c3.4,0.2,6.6,1.9,8.8,4.5c2.2,2.6,3.7,5.7,4.5,9c1.7,6.3,0.6,13.8-1.1,20.1
		c-6.8-2.5-11.1-9.8-13-13.6C114.4,391.1,112.6,378.3,118.3,377.2"/>
	<path class="st3" d="M140.2,418.5c-2.1-3.2-2.3-7.4-0.5-10.8c1.8-3.4,4.9-5.9,8.6-6.9c1.7-0.5,3.6-0.7,5.1,0.2c1.3,1,2,2.7,1.8,4.3
		c-0.3,1.6-1,3.2-2,4.4C149.8,414.2,145.8,418,140.2,418.5"/>
	<path class="st6" d="M141,439.6c-0.1-0.4-0.3-0.9-0.3-1.3c-0.2-0.9-0.4-2.1-0.7-3.6c-0.9-4-1.1-8.1-0.7-12.1
		c0.5-4.1,2-7.9,4.5-11.2c0.8-1,1.6-1.9,2.6-2.6c0.3-0.2,0.5-0.4,0.8-0.6c0.1-0.1,0.2-0.1,0.3-0.2c-1.3,1.1-2.4,2.3-3.4,3.6
		c-2.3,3.3-3.8,7.1-4.3,11.1c-0.6,4.7,0.1,8.9,0.6,12c0.2,1.5,0.4,2.8,0.6,3.6C140.9,438.7,141,439.1,141,439.6z"/>
	<path class="st6" d="M120.5,386.8c0.1,0.2,0.2,0.3,0.3,0.5c0.2,0.4,0.4,0.9,0.7,1.5c0.6,1.3,1.5,3.3,2.5,5.6
		c2.1,4.8,4.8,11.5,7.7,18.9s5.3,14.2,7,19.1c0.9,2.5,1.5,4.5,2,5.9c0.2,0.7,0.4,1.2,0.5,1.6c0.1,0.2,0.1,0.4,0.1,0.6
		c-0.1-0.2-0.2-0.4-0.2-0.5c-0.1-0.4-0.3-0.9-0.6-1.6l-2.1-5.8c-1.8-4.9-4.3-11.6-7.2-19.1s-5.6-14.1-7.6-18.9
		c-1-2.4-1.8-4.3-2.3-5.7c-0.3-0.6-0.5-1.1-0.6-1.6C120.6,387.2,120.5,387,120.5,386.8z"/>
	<path class="st3" d="M132.9,425.6c-4.2-7-11.4-11.5-19.5-12.1c-2-0.1-4.5,0.2-5.4,2s0.3,4,1.7,5.5c6,6.3,15.2,8.3,23.3,5.2"/>
	<path class="st6" d="M116.4,418.9c0.4,0,0.8,0,1.3,0c0.5,0,1,0.1,1.5,0.2c0.6,0.1,1.2,0.2,1.9,0.4c0.8,0.2,1.6,0.4,2.3,0.6
		c0.9,0.3,1.7,0.6,2.6,1c1.9,0.9,3.7,1.9,5.4,3.2c1.7,1.3,3.2,2.8,4.5,4.4c0.6,0.7,1.1,1.5,1.6,2.3c0.4,0.7,0.8,1.4,1.2,2.1
		c0.3,0.6,0.6,1.2,0.8,1.8c0.2,0.5,0.4,0.9,0.5,1.4c0.1,0.4,0.3,0.8,0.3,1.2c-0.1,0-0.6-1.7-1.9-4.3c-0.4-0.7-0.8-1.4-1.2-2
		c-0.5-0.8-1-1.5-1.6-2.2c-2.6-3.2-6-5.8-9.7-7.5c-0.9-0.4-1.7-0.7-2.5-1c-0.7-0.3-1.5-0.5-2.3-0.7
		C118.2,419.1,116.4,419,116.4,418.9z"/>
</g>
<g id="freepik--Character--inject-2">
	<path class="st6" d="M570.4,105.5c-2.9,0.7-4.4,4.1-4.7,7.1s0.1,6.2-1.2,8.9c-1.4,3.1-4.8,5.4-4.9,8.7c-0.1,2.1,1.2,4,1.1,6.1
		c-0.1,3.4-3.6,6-3.8,9.4c-0.1,2.4,1.5,4.8,1.1,7.2c-0.3,1.9-1.8,3.4-2.4,5.2c-1.2,3.6,1.2,7.6,4.5,9.6c6.8,4.3,15.8,2.2,20.1-4.6
		c0.4-0.7,0.8-1.4,1.1-2.2c1.8-4.3,1.4-9.2,1-13.8c-1.2-14.5-2.1-29-2.7-43.6"/>
	<path class="st7" d="M561.8,156.7c0.6-0.4,1.1-0.9,1.3-1.6c0.3-0.8,0.4-1.6,0.3-2.4c-0.1-1.1-0.4-2.2-0.7-3.2
		c-0.5-1.3-0.7-2.7-0.5-4.1c0.3-1.6,1.4-2.8,2.4-4.1c0.5-0.6,1-1.3,1.3-2.1c0.4-0.8,0.4-1.6,0.2-2.4c-0.5-1.6-2.1-2.8-2.8-4.7
		c-0.3-0.9-0.4-2-0.2-2.9c0.2-0.9,0.6-1.8,1-2.6c0.8-1.5,1.5-3.1,2-4.7c0.7-3.2,0.4-6.2,0.8-8.7c0.3-2,1.2-3.9,2.5-5.3
		c0.4-0.4,0.8-0.7,1.3-1c0.2-0.1,0.3-0.2,0.5-0.2c-0.6,0.3-1.2,0.8-1.7,1.3c-1.3,1.5-2.1,3.3-2.3,5.3c-0.2,1.3-0.3,2.7-0.3,4
		c0,1.6-0.2,3.1-0.5,4.7c-0.5,1.7-1.1,3.3-2,4.8c-0.8,1.6-1.4,3.4-0.8,5.1s2.3,2.9,2.9,4.8c0.3,0.9,0.2,1.9-0.2,2.8
		c-0.4,0.8-0.9,1.6-1.5,2.3c-1,1.3-2.1,2.5-2.3,3.9c-0.1,1.3,0,2.7,0.5,3.9c0.4,1.1,0.6,2.2,0.7,3.3c0,0.9-0.1,1.7-0.5,2.5
		c-0.2,0.5-0.6,0.9-1,1.3C562.2,156.5,562,156.6,561.8,156.7z"/>
	<path class="st8" d="M554,180.4l-9,26l-37.6,2l-6.3,14l39.3,4c7.6,3.1,16.3-0.5,19.4-8.1c0.1-0.2,0.2-0.4,0.2-0.6l10.5-29.3
		L554,180.4z"/>
	<path class="st8" d="M631.8,425.7c0,0-27.6-87.6-28.2-90.5c-0.5-2.6,10-65.6,11.3-82l-37.3,1.4v0.4l-15.8,0.9L576,435h17.2
		l-1.7-59.5c10.6,28.4,25.7,57.3,25.7,57.3L631.8,425.7z"/>
	<path class="st9" d="M592.2,396.9c0-0.5-0.2-19.9-0.2-19.9c-0.2,1.2-6.6-16.8-6.4-17.9C585.7,358.5,592.2,396.9,592.2,396.9z"/>
	<path class="st9" d="M584.8,350.5c-0.1,0.4-0.1,0.7-0.1,1.1c-0.1,1-0.1,2,0,3c0,0.6,0.1,1.3,0.2,2s0.2,1.5,0.4,2.3
		c0.4,1.8,0.8,3.5,1.4,5.2c1.2,3.6,2.6,6.8,3.6,9.1c0.5,1,0.9,2,1.2,2.7c0.1,0.4,0.3,0.7,0.5,1c-0.1-0.3-0.2-0.7-0.3-1
		c-0.2-0.7-0.6-1.6-1-2.8c-0.9-2.3-2.2-5.5-3.4-9.1c-0.6-1.7-1.1-3.4-1.4-5.1c-0.2-0.8-0.3-1.6-0.4-2.3s-0.2-1.4-0.2-2
		c-0.1-1.2-0.2-2.2-0.2-2.9C585,351.3,584.9,350.9,584.8,350.5z"/>
	<path class="st7" d="M575.7,435.9v-1.6l17.6-0.8l0,6.6l-1.1,0.1c-4.8,0.3-24.5,1.1-27.8,0.1C560.9,439.3,575.7,435.9,575.7,435.9z"
		/>
	<path class="st6" d="M593.6,439.8c-0.1,0-0.2,0-0.3,0l-0.9,0.1l-3.2,0.1c-2.7,0.1-6.4,0.2-10.5,0.2s-7.8,0-10.5-0.1l-3.2-0.1h-0.9
		h-0.3c0.1,0,0.2,0,0.3,0h0.9l3.2,0.1c2.7,0,6.4,0.1,10.5,0.1s7.8-0.1,10.5-0.2l3.2-0.1L593.6,439.8L593.6,439.8z"/>
	<path class="st6" d="M570,440.3c-0.1-0.5-0.3-1-0.6-1.5c-0.3-0.4-0.7-0.8-1.1-1.2c0.5,0.2,1,0.6,1.3,1.1
		C569.9,439.2,570.1,439.8,570,440.3z"/>
	<path class="st6" d="M575.2,437.7c0,0-0.3-0.3-0.5-0.7s-0.4-0.8-0.4-0.8s0.3,0.3,0.5,0.7S575.2,437.7,575.2,437.7z"/>
	<path class="st6" d="M576.6,437c0,0-0.3-0.1-0.6-0.4s-0.5-0.5-0.5-0.6s0.3,0.1,0.6,0.4S576.6,436.9,576.6,437z"/>
	<path class="st6" d="M577.5,435.3c-0.3,0.1-0.6,0.1-0.9,0.1c-0.3,0-0.6,0-0.9-0.1c0.3-0.1,0.6-0.1,0.9-0.1
		C576.9,435.2,577.2,435.2,577.5,435.3z"/>
	<path class="st6" d="M577.8,434.1c-0.3,0.2-0.6,0.3-1,0.3c-0.3,0-0.7,0-1-0.1c0.3-0.1,0.7-0.1,1-0.1
		C577.1,434.2,577.5,434.1,577.8,434.1z"/>
	<path class="st6" d="M574.6,436.2c-0.4,0.1-0.8,0.1-1.1,0c-0.4,0-0.8-0.1-1.2-0.3c-0.2-0.1-0.5-0.2-0.7-0.3
		c-0.1-0.1-0.2-0.2-0.3-0.4c0-0.2,0-0.3,0.2-0.5c1-0.5,2.3-0.1,2.8,1c0.1,0.1,0.1,0.3,0.1,0.4c0,0.1,0,0.2,0,0.3
		c-0.1-0.4-0.3-0.7-0.5-1c-0.3-0.3-0.6-0.5-1-0.6c-0.4-0.1-0.9-0.1-1.3,0.1c-0.2,0.1-0.1,0.3,0.1,0.5c0.2,0.1,0.4,0.2,0.6,0.3
		c0.4,0.1,0.8,0.2,1.2,0.3C574.2,436.1,574.6,436.1,574.6,436.2z"/>
	<path class="st6" d="M574.3,436.2c-0.1-0.2-0.2-0.5-0.1-0.8c0-0.3,0.1-0.6,0.3-0.8c0.2-0.3,0.5-0.6,0.9-0.6
		c0.2,0.1,0.4,0.3,0.3,0.5c0,0.2-0.1,0.3-0.2,0.5c-0.2,0.2-0.3,0.5-0.5,0.7C574.9,436,574.6,436.1,574.3,436.2
		c0.1,0,0.3-0.2,0.6-0.6c0.2-0.2,0.3-0.4,0.5-0.7c0.2-0.2,0.3-0.7,0-0.7s-0.6,0.3-0.7,0.5c-0.2,0.2-0.3,0.5-0.3,0.7
		C574.3,435.7,574.3,436,574.3,436.2z"/>
	<path class="st6" d="M593.2,435c0,0-0.5,0-1.3,0c-2.1,0.3-3.9,1.7-4.6,3.7c-0.3,0.8-0.3,1.3-0.3,1.3s0-0.1,0-0.4
		c0-0.3,0.1-0.6,0.2-1c0.3-1,0.9-1.9,1.8-2.6c0.8-0.7,1.9-1.1,2.9-1.1c0.3,0,0.7,0,1,0C593,434.9,593.1,435,593.2,435z"/>
	<path class="st6" d="M584.8,438.4c-0.8,0.2-1.7,0.3-2.6,0.3c-0.9,0-1.7,0-2.5-0.2c0-0.1,1.1,0,2.5,0S584.8,438.3,584.8,438.4z"/>
	<path class="st6" d="M588.2,438.4c0,0-0.1,0.2-0.2,0.5s-0.2,0.5-0.2,0.5s-0.1-0.3,0-0.6S588.2,438.3,588.2,438.4z"/>
	<path class="st6" d="M589.5,436.7c0,0-0.1,0.2-0.3,0.4s-0.4,0.3-0.4,0.3s0.1-0.2,0.3-0.4S589.5,436.7,589.5,436.7z"/>
	<path class="st6" d="M591.3,436c0,0.1-0.2,0.1-0.5,0.1s-0.4,0.2-0.5,0.2s0.1-0.3,0.4-0.4S591.4,435.9,591.3,436z"/>
	<path class="st6" d="M592.7,435.6c0,0.1-0.1,0.1-0.2,0.2s-0.3,0.1-0.3,0s0.1-0.1,0.2-0.2S592.6,435.6,592.7,435.6z"/>
	<path class="st7" d="M616.9,434.4l-0.7-1.5l15.7-7.9l2.8,6l-1,0.5c-4.3,2.2-21.9,11-25.3,11.5C604.7,443.5,616.9,434.4,616.9,434.4
		z"/>
	<path class="st6" d="M634.8,430.6l-0.3,0.2l-0.8,0.4l-2.8,1.4c-2.4,1.2-5.7,2.8-9.5,4.5s-7.2,3.1-9.6,4.2l-3,1.2l-0.8,0.3
		c-0.1,0-0.2,0.1-0.3,0.1l0.3-0.1l0.8-0.4l2.9-1.3c2.5-1.1,5.9-2.5,9.6-4.2s7.1-3.3,9.5-4.4l2.9-1.4l0.8-0.4L634.8,430.6z"/>
	<path class="st6" d="M613.5,440.7c-0.3-0.4-0.7-0.8-1.2-1.1c-0.5-0.3-1-0.5-1.5-0.7C612,438.9,613.1,439.6,613.5,440.7L613.5,440.7
		z"/>
	<path class="st6" d="M617.1,436.2c0,0-0.4-0.1-0.8-0.4s-0.7-0.5-0.7-0.6s0.4,0.1,0.8,0.4S617.2,436.2,617.1,436.2z"/>
	<path class="st6" d="M618.1,435c0,0-0.3,0-0.7-0.1s-0.7-0.3-0.7-0.3c0.3,0,0.5,0,0.7,0.1C617.8,434.8,618.1,434.9,618.1,435z"/>
	<path class="st6" d="M618.3,433.1c0,0.1-0.3,0.3-0.8,0.5c-0.3,0.2-0.6,0.3-0.9,0.3c0-0.1,0.3-0.3,0.8-0.5
		C617.6,433.2,617.9,433.1,618.3,433.1z"/>
	<path class="st6" d="M618,431.9c0,0-0.3,0.4-0.8,0.7c-0.3,0.2-0.6,0.3-1,0.3c0.3-0.2,0.6-0.4,0.9-0.5
		C617.6,432.1,618,431.9,618,431.9z"/>
	<path class="st6" d="M616,435.1c-0.3,0.2-0.6,0.4-1,0.5c-0.4,0.1-0.8,0.2-1.2,0.3c-0.2,0-0.5,0-0.7,0c-0.2,0-0.3-0.1-0.4-0.2
		c-0.1-0.1-0.1-0.3,0-0.5c0.6-0.8,1.7-1,2.6-0.5c0.2,0.1,0.5,0.3,0.6,0.5c0.1,0.2,0.2,0.3,0.2,0.3c-0.2-0.3-0.5-0.5-0.9-0.7
		c-0.4-0.2-0.7-0.2-1.1-0.2c-0.5,0-0.9,0.3-1.2,0.6c-0.1,0.2,0,0.4,0.3,0.4c0.2,0,0.5,0,0.7,0c0.4,0,0.8-0.1,1.2-0.2
		C615.6,435.2,616,435,616,435.1z"/>
	<path class="st6" d="M615.7,435.3c-0.2-0.2-0.4-0.4-0.4-0.7c-0.1-0.3-0.1-0.6-0.1-0.9c0-0.4,0.3-0.7,0.6-0.9
		c0.3-0.1,0.8,0.4,0.9,0.6s-0.3,0.1-0.3,0.3c0,0.3-0.1,0.6-0.2,0.8C616.1,434.8,616,435,615.7,435.3c0.1-0.1,0.2-0.3,0.3-0.8
		c0.1-0.3,0.1-0.5,0.2-0.8c0-0.3,0-0.7-0.3-0.6s-0.4,0.5-0.5,0.7c-0.1,0.3-0.1,0.5,0,0.8C615.5,434.8,615.6,435,615.7,435.3z"/>
	<path class="st6" d="M632.5,426.4c0,0-0.5,0.2-1.2,0.6c-0.9,0.5-1.6,1.3-2.1,2.2c-0.5,0.9-0.7,2-0.6,3c0.1,0.8,0.3,1.3,0.2,1.3
		c-0.1-0.1-0.1-0.2-0.2-0.3c-0.1-0.3-0.2-0.6-0.2-0.9c-0.3-2.2,0.8-4.3,2.7-5.4c0.3-0.2,0.6-0.3,0.9-0.4
		C632.2,426.4,632.4,426.4,632.5,426.4z"/>
	<path class="st6" d="M626.2,432.9c-1.4,1-3,1.7-4.7,2.1c0-0.1,1-0.5,2.3-1S626.2,432.9,626.2,432.9z"/>
	<path class="st6" d="M629.3,431.5c0,0,0,0.3,0,0.5s0,0.5,0,0.5s-0.2-0.2-0.2-0.5S629.2,431.4,629.3,431.5z"/>
	<path class="st6" d="M629.8,429.5c0,0,0,0.2-0.1,0.5s-0.2,0.4-0.3,0.4s0-0.2,0.1-0.5S629.7,429.5,629.8,429.5z"/>
	<path class="st6" d="M631.2,428c0,0.1-0.2,0.1-0.4,0.3s-0.3,0.4-0.4,0.4s0-0.3,0.2-0.5S631.2,428,631.2,428z"/>
	<path class="st6" d="M632.2,427.2c0,0,0,0.2-0.1,0.3s-0.2,0.2-0.3,0.1s0-0.2,0.1-0.3S632.2,427.1,632.2,427.2z"/>
	<path class="st3" d="M612.6,223.6l-2.9-35.7l15,0.3c0,0,0.7-5.3-1.5-16.8c-1.4-7.1-6.1-11.4-11.4-14v-0.1l-0.5-0.1
		c-4.4-2-9-3.2-13.8-3.6l-18.5,0.2c0,0-14.1-1.8-21.9,8.3c-3,3.9-12.3,30.4-12.3,30.4l22.2,10.7l-2.1-14.7c0,0,0.4,10.6,1.8,14
		c0.8,1.9,3,7.7,3,7.7l-0.3,17.6L612.6,223.6z"/>
	<polygon class="st3" points="602.4,182.8 599.7,194.4 625.5,194.4 623.8,174.9 	"/>
	<path class="st6" d="M625.5,194.4c-1.1-0.2-2.3-0.3-3.4-0.3c-2.1-0.1-5-0.2-8.3-0.2s-6.2,0.2-8.3,0.3c-1.1,0-2.3,0.2-3.4,0.4
		c1.1,0.1,2.3,0.1,3.4,0c2.1-0.1,5-0.1,8.3-0.2s6.2,0,8.3,0.1C623.2,194.6,624.3,194.5,625.5,194.4z"/>
	<path class="st6" d="M601.3,174.8c-0.1,1-0.2,2-0.1,3c0,1.8,0.1,4.4,0.2,7.1s0.2,5.3,0.4,7.1c0,1,0.1,2,0.3,3c0.1-1,0.1-2,0.1-3
		c0-1.8-0.1-4.4-0.2-7.1s-0.2-5.3-0.4-7.1C601.6,176.8,601.5,175.8,601.3,174.8z"/>
	<g class="st10">
		<path d="M577.8,184.9c0,0,5.7,42.6,21.9,41.4c0,0,7.3-0.1,9.6-4.9v-1.9L577.8,184.9z"/>
	</g>
	<g class="st10">
		<polygon points="601.3,177.3 598.2,198.1 600.2,201.8 603.5,194.6 602.1,194.6 		"/>
	</g>
	<path class="st6" d="M569.7,210.2c-0.2-0.3-0.3-0.6-0.4-1c-0.3-0.6-0.6-1.6-1-2.8c-1-3.1-1.8-6.3-2.5-9.4c-0.6-3.2-1-6.4-1.2-9.7
		c-0.1-1.3-0.1-2.3-0.1-3c0-0.4,0-0.7,0.1-1.1c0.1,0,0.1,1.5,0.3,4c0.3,3.2,0.7,6.4,1.4,9.6c0.7,3.7,1.6,7.1,2.3,9.4
		c0.3,1.1,0.6,2.1,0.8,2.8C569.5,209.4,569.6,209.8,569.7,210.2z"/>
	<path class="st6" d="M576.2,222.4c-0.1,0-0.5-0.9-0.9-2c-0.3-0.7-0.4-1.4-0.4-2.2c0.4,0.6,0.7,1.3,0.9,2.1
		C576.1,220.9,576.2,221.7,576.2,222.4z"/>
	<path class="st6" d="M578.4,222.2c-0.8-2-0.8-4.2-0.1-6.2c0.1,1,0.1,2.1,0,3.1C578.5,220.1,578.5,221.2,578.4,222.2z"/>
	<path class="st6" d="M567.5,203.6c-0.1,0.1-5.2-2.3-11.5-5.5s-11.3-5.8-11.3-5.9s5.2,2.3,11.5,5.5S567.6,203.5,567.5,203.6z"/>
	<path class="st8" d="M576.6,157.3c0.1-5.1,0.1-10.4,0.1-10.4s-6.5-1.3-7.6-9.8c-1.1-8.1,1.9-27.3,1.9-27.3l0,0
		c9.5-3.6,19.3-0.3,25.8,7.3l0,0l-1.6,41.1c-0.2,4.8-4.4,8.4-9.5,8.2l0,0C580.6,166.2,576.5,162.1,576.6,157.3z"/>
	<path class="st6" d="M570.6,125.1c0,0.6,0.4,1.1,1,1.1c0.6,0.1,1.1-0.4,1.1-0.9c0,0,0,0,0-0.1c0-0.6-0.4-1.1-1-1.1
		c-0.5-0.1-1.1,0.3-1.1,0.8C570.6,125,570.6,125,570.6,125.1z"/>
	<path class="st6" d="M570.2,123.7c0.1,0.1,1-0.4,2.2-0.4s2,0.6,2.1,0.5s-0.1-0.3-0.4-0.6c-0.5-0.4-1.1-0.6-1.7-0.6
		c-0.6,0-1.2,0.2-1.7,0.5C570.2,123.3,570.1,123.6,570.2,123.7z"/>
	<path class="st6" d="M582.5,125.8c0,0.6,0.4,1.1,1,1.1c0.5,0.1,1.1-0.3,1.1-0.8c0-0.1,0-0.1,0-0.2c0-0.6-0.4-1.1-1-1.1
		c-0.5-0.1-1.1,0.3-1.1,0.8C582.5,125.7,582.5,125.8,582.5,125.8z"/>
	<path class="st6" d="M582.4,124.4c0.1,0.2,1-0.4,2.2-0.4s2,0.6,2.2,0.5s-0.1-0.3-0.4-0.6c-0.5-0.4-1.1-0.6-1.7-0.6
		c-0.6,0-1.2,0.2-1.7,0.5C582.5,124.1,582.3,124.3,582.4,124.4z"/>
	<path class="st6" d="M577.9,133c-0.6-0.2-1.3-0.3-1.9-0.4c-0.3,0-0.6-0.1-0.6-0.3c0-0.3,0.1-0.6,0.2-0.9l0.9-2.3
		c0.9-1.9,1.6-3.9,2.2-5.9c-1,1.8-1.9,3.8-2.6,5.7c-0.3,0.8-0.6,1.6-0.9,2.3c-0.2,0.4-0.3,0.8-0.2,1.2c0.1,0.2,0.3,0.4,0.5,0.5
		c0.2,0,0.3,0.1,0.5,0.1C576.6,133,577.3,133.1,577.9,133z"/>
	<path class="st9" d="M576.7,146.9c4,0.2,8-0.8,11.5-2.8c0,0-2.9,5.8-11.4,4.8L576.7,146.9z"/>
	<path class="st6" d="M586.2,121c-0.2,0.4-1.1,0.2-2.1,0s-1.9-0.4-2-0.8s0.9-1,2.3-0.7S586.4,120.7,586.2,121z"/>
	<path class="st6" d="M574.5,119.3c-0.1,0.4-1,0.6-2.2,0.6s-2.1,0-2.2-0.4s0.8-1.1,2.1-1.1S574.6,118.9,574.5,119.3z"/>
	<path class="st9" d="M577.9,135.8c-0.3-0.1-0.5,0.1-0.7,0.3c-0.2,0.3-0.1,0.7,0.3,0.9s0.7,0.1,0.9-0.3c0.1-0.2,0.1-0.5,0-0.7
		c-0.1-0.3-0.5-0.4-0.8-0.3"/>
	<path class="st6" d="M578.2,135.9c0-0.1-0.2-0.3-0.7-0.2c-0.3,0.1-0.6,0.3-0.6,0.6c-0.1,0.4,0,0.8,0.3,1.1c0.3,0.2,0.8,0.2,1.1,0
		c0.3-0.2,0.4-0.5,0.4-0.8C578.6,136,578.2,135.9,578.2,135.9c0,0.2,0.1,0.3,0.1,0.7c0,0.2-0.1,0.3-0.2,0.4c-0.2,0.1-0.4,0.1-0.5,0
		c-0.1-0.1-0.2-0.3-0.2-0.5c0-0.2,0.1-0.3,0.3-0.4C577.9,135.9,578.2,136,578.2,135.9z"/>
	<path class="st6" d="M593,127.2c-1,2.3-3.5,4.2-3.1,6.7c0.2,1.6,1.3,3.1,1.1,4.8c-0.3,2-2.4,3.5-2.7,5.5c-0.4,2.5,2.1,4.5,3,6.8
		c1.4,3.4-0.4,7.3-0.4,11c0.1,5.9,4.6,10.8,10.4,11.4c2.3,0.2,4.8-0.5,6-2.5c1-1.6,0.8-3.7,1.4-5.5c0.9-2.7,3.4-4.6,4-7.4
		c1-5-5.1-9.2-4.7-14.3c0.2-2.2,1.5-4.1,2.1-6.2c0.7-2.8,0.1-5.8-1.8-8.1c-1.5-1.8-3.7-3-5-4.9c-1.5-2.2-1.5-5-2-7.6
		c-2.2-10.4-12.4-17-22.7-14.8c-2.8,0.6-5.4,1.8-7.7,3.6c0,0-1.5,6.6,5.3,7.7s9.9-0.2,10.7,2.5c-0.4,2.3,0.4,4.6,2,6.2
		C591.5,125.1,594.1,124.5,593,127.2z"/>
	<path class="st7" d="M603.8,172.9c-0.2,0-0.4,0-0.6-0.1c-0.6-0.1-1.2-0.3-1.7-0.5c-2.1-0.8-3.9-2.1-5.2-3.9c-1-1.2-1.7-2.6-2.2-4
		c-0.6-1.6-0.9-3.4-0.9-5.1c0-1.9,0.2-3.8,0.7-5.7c0.3-1,0.6-1.9,1-2.9c0.4-0.9,0.8-1.9,1.1-2.9c0.3-1,0.3-2,0-2.9
		c-0.3-0.9-0.7-1.9-1.1-2.7c-0.5-0.9-0.9-1.8-1.2-2.7c-0.3-0.9-0.4-1.9-0.2-2.9c0.4-1.9,1.5-3.3,2.2-4.7c0.6-1.3,1-2.8,0.9-4.3
		c-0.1-2.2-0.9-4.2-2.2-5.9c-0.5-0.6-1.1-1.1-1.7-1.7c0.7,0.4,1.3,0.9,1.8,1.5c1.5,1.7,2.3,3.8,2.4,6c0.1,1.5-0.2,3.1-0.9,4.5
		c-0.7,1.5-1.8,2.9-2.1,4.6s0.5,3.5,1.4,5.3c0.5,0.9,0.9,1.9,1.2,2.8c0.3,1,0.3,2.2,0,3.2c-0.3,1-0.7,2-1.2,3
		c-0.4,0.9-0.7,1.9-1,2.8c-0.5,1.8-0.7,3.7-0.7,5.6c0,3.2,1,6.3,2.9,8.9c1.3,1.7,3,3.1,5,3.9C602.9,172.8,603.8,172.9,603.8,172.9z"
		/>
	<path class="st7" d="M602.8,122.5c-0.5,0.1-1,0.2-1.5,0.2c-1.4,0.1-2.8,0.1-4.1-0.1c-2.1-0.3-4-1.4-5.2-3.2c-0.6-1.1-1-2.2-1.4-3.4
		c-0.4-1.2-1.2-2.2-2.3-2.8c-2.2-1.4-4.8-1.6-7-1.8c-2.1-0.1-4.1-0.7-5.8-1.8c-1.2-0.8-2-2-2.4-3.3c-0.1-0.4-0.1-0.8-0.1-1.1
		c0-0.3,0.1-0.4,0.1-0.4c0,0.5,0.1,1,0.2,1.5c0.4,1.3,1.3,2.4,2.4,3.1c1.7,1,3.7,1.6,5.7,1.6c2.2,0.3,4.9,0.4,7.2,1.9
		c1.1,0.7,2,1.8,2.5,3.1c0.3,1.1,0.7,2.2,1.3,3.3c1.2,1.6,2.9,2.7,4.9,3c1.3,0.2,2.7,0.3,4,0.3C601.7,122.4,602.2,122.4,602.8,122.5
		z"/>
	<path class="st7" d="M600.3,114.3c-0.4,0.1-0.8,0.2-1.2,0.2c-1.9,0-3.7-0.7-5-2c-0.6-0.6-1.1-1.3-1.5-2.1c-0.9-1.5-1.8-3.4-3.6-4.2
		c-1.8-0.6-3.7-0.8-5.6-0.5c-1.6,0.2-3.2,0.2-4.8,0c-1.1-0.2-2.1-0.6-3-1.3c-0.2-0.2-0.4-0.4-0.6-0.7c-0.1-0.2-0.2-0.3-0.2-0.3
		c0,0,0.3,0.3,0.9,0.8c0.9,0.6,1.8,1,2.9,1.1c1.6,0.2,3.1,0.1,4.7-0.1c2-0.3,4-0.1,5.8,0.5c1,0.4,1.8,1.1,2.4,2
		c0.5,0.8,1,1.6,1.5,2.4c0.4,0.7,0.9,1.4,1.5,2c0.5,0.5,1.1,0.9,1.7,1.3c0.9,0.5,2,0.8,3,0.8C599.8,114.3,600.3,114.3,600.3,114.3z"
		/>
	<path class="st7" d="M606.7,170.8c0,0,0.3-0.7,0.6-1.9c0.5-1.7,0.7-3.5,0.7-5.4c-0.1-2.7-0.8-5.3-2.1-7.6c-0.7-1.3-1.8-2.5-2.8-3.9
		c-0.5-0.7-0.8-1.6-1-2.4c-0.2-0.9-0.1-1.8,0.2-2.7c0.6-1.7,1.6-3.2,1.8-4.8s-0.5-3-1.3-4.3c-0.4-0.6-0.7-1.3-1.1-2
		c-0.3-0.7-0.5-1.4-0.6-2.1c-0.1-1.3-0.1-2.5,0.1-3.8c0.3-1.8,0.2-3.6-0.5-5.3c-0.3-0.6-0.7-1.1-1.2-1.6c0,0,0,0,0.1,0.1
		c0.1,0.1,0.2,0.1,0.3,0.2c0.4,0.3,0.7,0.7,0.9,1.2c0.7,1.7,0.9,3.6,0.7,5.4c-0.1,1.2-0.2,2.5,0,3.7c0.2,1.4,0.8,2.7,1.6,3.9
		c0.4,0.7,0.8,1.4,1.1,2.1c0.3,0.8,0.4,1.7,0.3,2.5c-0.2,1.8-1.3,3.2-1.8,4.9c-0.3,0.8-0.3,1.6-0.2,2.4c0.2,0.8,0.5,1.6,0.9,2.2
		c0.8,1.4,2,2.6,2.7,3.9c1.3,2.4,2.1,5.1,2.1,7.9c0,1.8-0.3,3.7-0.8,5.4c-0.2,0.5-0.4,0.9-0.6,1.4
		C606.9,170.5,606.8,170.6,606.7,170.8z"/>
	<path class="st6" d="M566,357.1c0,0-6.7-63.8-7.1-87.4s10.6-46.9,10.6-46.9l43.1-1.8c0,0,8.5,23.9,8.7,34
		c0.3,19.5-5.2,38.8-4.6,54.3l1.4,47.8"/>
	<path class="st11" d="M619.6,278.6c-0.2,0.2-0.5,0.4-0.7,0.5l-0.4,0.3l-0.4,0.4c-0.4,0.3-0.7,0.7-1,1.1c-1.4,1.7-2.4,4.8-3.4,8.5
		c-0.5,2.1-1.2,4.1-2.2,6.1c-0.3,0.5-0.6,1-1,1.5c-0.2,0.2-0.3,0.5-0.6,0.7l-0.7,0.7c-0.9,0.9-2,1.6-3.2,2.1
		c-2.4,1.1-5.1,1.6-7.6,2.8c-2.5,1.4-4.5,3.6-5.5,6.3c-1.2,2.7-2,5.5-3,8.2s-2.3,5.2-4.5,6.8c-2.1,1.4-4.5,2.2-7,2.2
		c-2.3,0.1-4.5,0.1-6.4,0.4c-1.7,0.2-3.4,0.8-4.8,1.8c-1,0.8-1.8,1.9-2.2,3.2c-0.3,0.8-0.3,1.6-0.2,2.5c0.1,0.6,0.3,0.8,0.2,0.8
		c-0.2-0.3-0.3-0.5-0.3-0.8c-0.2-0.8-0.2-1.7,0.1-2.5c0.4-1.3,1.2-2.5,2.3-3.3c1.5-1.1,3.2-1.8,5-2c2-0.3,4.1-0.3,6.4-0.4
		c2.4,0,4.8-0.8,6.8-2.2c2-1.8,3.5-4.1,4.3-6.6c1-2.6,1.7-5.5,3-8.2c1.1-2.8,3.1-5.1,5.8-6.5c2.6-1.3,5.3-1.8,7.7-2.8
		c1.2-0.5,2.2-1.2,3.1-2l0.6-0.6c0.2-0.2,0.4-0.5,0.5-0.7c0.4-0.5,0.7-0.9,0.9-1.5c1-1.9,1.7-3.9,2.2-6c1-3.8,2.1-6.9,3.6-8.6
		c0.3-0.4,0.6-0.7,1-1.1c0.2-0.1,0.3-0.3,0.4-0.4l0.4-0.3C619,278.8,619.3,278.7,619.6,278.6z"/>
	<path class="st11" d="M619.8,249.1c0,0.3,0.1,0.6,0.1,0.9c0,0.8-0.1,1.6-0.3,2.4c-0.9,2.9-2.6,5.5-4.9,7.5c-1.5,1.4-3.2,2.6-5,3.7
		c-1.9,1.1-4.1,2.2-6.3,3.5c-2.3,1.2-4.4,2.7-6.4,4.5c-2,2-3.6,4.3-4.8,6.8c-1.2,2.6-2.6,5-4.2,7.4c-0.8,1.1-1.7,2.1-2.7,3
		c-1,0.9-2.1,1.6-3.3,2.2c-2.1,1.1-4.4,1.9-6.7,2.6c-2.1,0.7-4.1,1.3-5.9,2c-1.6,0.6-3.1,1.4-4.5,2.4c-1.1,0.7-2,1.6-2.8,2.6
		c-0.7,0.9-1.2,1.8-1.7,2.8c0.1-0.3,0.2-0.5,0.3-0.8c0.3-0.8,0.7-1.5,1.3-2.1c0.8-1,1.7-1.9,2.8-2.7c1.4-1,2.9-1.8,4.5-2.5
		c1.9-0.8,3.9-1.5,5.9-2c2.3-0.7,4.5-1.5,6.6-2.6c1.1-0.6,2.2-1.3,3.2-2.1c1-0.9,1.9-1.9,2.6-2.9c1.5-2.4,2.9-4.8,4.2-7.3
		c1.3-2.6,2.9-4.9,5-6.9c2-1.8,4.2-3.3,6.5-4.5c2.2-1.2,4.3-2.3,6.3-3.4c1.8-1,3.5-2.2,5-3.6c2.3-1.9,4-4.5,4.9-7.3
		C619.7,251.3,619.8,250.2,619.8,249.1z"/>
	<path class="st11" d="M559.1,273c0-0.1-0.1-0.1-0.1-0.2c-0.1-0.2-0.1-0.4-0.2-0.6c-0.2-0.8-0.1-1.6,0.1-2.4c0.6-2,2.8-4.6,6.3-5.8
		c1.8-0.6,3.8-1,5.9-1.5c3.5-0.6,6.6-2.8,8.2-6.1c0.6-1.2,1.1-2.4,1.5-3.6c0.8-2.7,1.8-5.2,3.2-7.7c1.5-2.4,3.8-4.2,6.5-5.1
		c2.5-0.8,5-1.4,7.5-1.9c2.3-0.4,4.5-1.2,6.5-2.2c1.7-1,3.2-2.4,4.4-4c1.7-2.4,2.7-5.2,2.8-8.1c0-1.1-0.1-2.1-0.2-3.2
		c0.3,1,0.4,2.1,0.4,3.2c0,3-1,5.9-2.7,8.3c-1.2,1.7-2.7,3.1-4.5,4.1c-2.1,1.1-4.3,1.9-6.6,2.3c-2.5,0.5-5,1.1-7.4,1.9
		c-2.6,0.8-4.8,2.6-6.3,4.9c-1.3,2.4-2.4,4.9-3.1,7.6c-0.4,1.2-0.9,2.5-1.5,3.7c-0.6,1.1-1.3,2.2-2.2,3.1c-1.8,1.6-3.9,2.7-6.3,3.1
		c-2.1,0.5-4.1,0.9-5.9,1.5c-3.5,1.2-5.7,3.6-6.3,5.5c-0.2,0.7-0.3,1.5-0.2,2.3C559,272.4,559.1,272.7,559.1,273z"/>
	<path class="st11" d="M616.1,327c0,0.2,0.1,0.4,0.1,0.6c0,0.6,0,1.2-0.2,1.8c-0.6,2.2-2,4.1-3.8,5.4c-1.2,1-2.6,1.8-4,2.4
		c-1.5,0.6-3.2,1.2-5,1.7c-1.8,0.5-3.7,1.2-5.4,2c-1.8,0.9-3.5,2.1-4.8,3.6c-1.5,1.5-2.7,3.2-4.1,4.7c-1.3,1.4-2.9,2.6-4.6,3.6
		c-2.9,1.6-6.2,2.4-9.5,2.5c-2.2,0-4.4-0.3-6.5-1.1c-0.6-0.2-1.1-0.4-1.7-0.7c-0.2-0.1-0.4-0.2-0.5-0.3c0.2,0.1,0.4,0.1,0.6,0.2
		c0.5,0.2,1.1,0.4,1.7,0.6c2.1,0.7,4.3,1,6.5,0.9c3.3-0.1,6.4-1,9.3-2.5c1.7-0.9,3.2-2.1,4.5-3.5c1.4-1.5,2.6-3.1,4.1-4.7
		c1.4-1.6,3.2-2.8,5.1-3.7c1.8-0.8,3.6-1.5,5.5-2c1.8-0.5,3.4-1,5-1.7c1.4-0.6,2.7-1.3,3.9-2.3c1.8-1.3,3.1-3.1,3.8-5.2
		C616,328.6,616.1,327.8,616.1,327z"/>
	<path class="st8" d="M611.2,194.5l-8.3,0.2c-0.3,1.7-1,3.3-1.9,4.7c-7-12.1-12.4-28.3-13.7-34.8c0.2-0.6,0.4-1.4,0.7-2.2
		c0.2-1.2,0.2-2.5-0.1-3.7c-0.2-1.4-0.6-3.4-0.8-4.3c-0.4-2.8-0.8-3.2-1.8-2.9c-1.3,0.4,0.5,7.7-0.5,7.9c-0.6,0.1-1.3-2.4-1.5-4.5
		s-1.1-8.4-1.8-8.8c-1-0.6-1.9,0.4-1.6,2.4s0.6,8.2-0.5,8.3s-2-10.4-2-10.4s0.2-2.3-1.1-2.2c-2.3,0.1-0.5,11.1-0.3,12.2
		c0.1,0.7-1,0.9-1.1,0.1s-0.7-10.5-3-10.4c-1.8,0,1.4,9.1,0.4,11.2s-1.7-7.1-3.4-7c-0.6,0.1-1.1,0.2,0.1,5.4c1.1,4.1,2.4,8.2,4,12.2
		c2.7,14.4,14.4,60.7,32.9,52.2c10.3-4.7,14.5-25.7,14.5-25.7L611.2,194.5z"/>
	<path class="st9" d="M575.7,157.2c0.1,0,0.2,0,0.2,0c0.2-0.1,0.4-0.3,0.4-0.6c0-0.6-0.1-1.5-0.3-2.7c-0.2-1.4-0.4-2.8-0.5-4.3
		c0-0.8,0-1.7,0-2.7c0-0.5,0.1-1,0.2-1.4c0.1-0.4,0.4-1,0.7-0.9h0.1c0.3,0,0.6,0.3,0.7,0.7c0.1,0.4,0.2,0.9,0.1,1.3l0,0l0,0
		c0.2,2.8,0.6,5.6,1.1,8.4c0.1,0.4,0.2,0.8,0.3,1.1c0.1,0.2,0.1,0.4,0.2,0.6c0.1,0.1,0.1,0.2,0.2,0.3c0.1,0.1,0.2,0.2,0.4,0.3
		c0.3,0,0.5-0.2,0.6-0.5c0.1-0.2,0.1-0.4,0.2-0.6c0.1-0.4,0.1-0.8,0.2-1.2c0.1-1.7,0.1-3.3-0.1-5c-0.1-0.8-0.2-1.7-0.1-2.5
		c0-0.4,0.2-0.7,0.5-0.9c0.1-0.1,0.3-0.1,0.4-0.1c0.1,0,0.2,0.1,0.2,0.1c0.1,0,0.1,0.1,0.1,0.1c0.3,0.8,0.5,1.7,0.7,2.5
		c0.2,0.9,0.3,1.8,0.5,2.7s0.3,1.8,0.4,2.8c0.1,1,0.2,1.9,0.5,2.9c0.1,0.5,0.3,1,0.5,1.4c0.1,0.3,0.2,0.5,0.4,0.7
		c0.1,0.2,0.4,0.3,0.6,0.2c0.2-0.1,0.4-0.2,0.4-0.4c0.1-0.5,0.2-1,0.1-1.6c0-0.5-0.1-1-0.1-1.5c-0.1-0.8-0.2-1.7-0.2-2.5
		c0-0.4,0-0.8,0-1.2c0-0.2,0.1-0.4,0.1-0.5c0-0.1,0.1-0.1,0.1-0.1l0,0h0.1c0.7-0.3,0.9,0.6,1.1,1.4s0.3,1.6,0.4,2.4
		c0.3,1.6,0.6,3.1,0.8,4.6c0.1,0.7,0.1,1.5-0.1,2.2c-0.2,0.7-0.5,1.4-0.7,2.1v0.1v0.1c1.2,4.9,2.7,9.7,4.5,14.5
		c1.6,4.3,3.2,8,4.6,11s2.7,5.4,3.5,6.9l1,1.8c0.1,0.2,0.2,0.4,0.4,0.6c-0.1-0.2-0.2-0.4-0.3-0.6l-1-1.8c-0.8-1.6-2-4-3.4-7
		s-2.9-6.7-4.4-11c-1.8-4.7-3.2-9.5-4.4-14.4v0.1c0.2-0.7,0.5-1.4,0.7-2.1c0.2-0.8,0.2-1.6,0.1-2.4c-0.2-1.6-0.5-3.1-0.8-4.7
		c-0.2-0.8-0.3-1.6-0.4-2.4c0-0.4-0.1-0.8-0.2-1.2c-0.1-0.2-0.3-0.4-0.5-0.6c-0.3-0.1-0.5-0.1-0.8,0h-0.2c-0.1,0-0.2,0.1-0.2,0.1
		c-0.1,0.1-0.2,0.2-0.3,0.4c-0.1,0.2-0.1,0.4-0.2,0.7c0,0.4,0,0.9,0,1.3c0,0.8,0.1,1.7,0.2,2.5c0,0.5,0.1,1,0.1,1.4
		c0,0.5,0,0.9-0.1,1.4c0,0.1-0.1,0.1,0,0.1l0,0l0,0l0,0l0,0l0,0l-0.1-0.1c-0.1-0.2-0.2-0.3-0.3-0.5c-0.2-0.4-0.3-0.9-0.4-1.3
		c-0.2-0.9-0.4-1.8-0.5-2.8c-0.1-0.9-0.2-1.9-0.4-2.8c-0.1-0.9-0.3-1.8-0.5-2.7c-0.2-0.9-0.4-1.8-0.8-2.7c-0.1-0.1-0.2-0.3-0.3-0.4
		c-0.1-0.1-0.2-0.1-0.4-0.2c-0.3-0.1-0.6,0-0.8,0.1c-0.4,0.3-0.7,0.8-0.7,1.3c-0.1,0.5-0.1,0.9,0,1.4c0,0.4,0.1,0.9,0.1,1.3
		c0.1,1.6,0.2,3.3,0.1,4.9c0,0.4-0.1,0.8-0.2,1.2c0,0.2-0.1,0.4-0.2,0.5c0,0.1-0.1,0.1-0.1,0.2c0,0.1-0.1,0-0.1,0.1c0-0.1,0,0,0-0.1
		c0-0.1-0.1-0.1-0.1-0.2c-0.1-0.2-0.1-0.3-0.2-0.5c-0.1-0.4-0.2-0.7-0.3-1.1c-0.5-2.7-0.9-5.5-1.1-8.3l0,0c0-0.5,0-1-0.2-1.5
		c-0.1-0.3-0.2-0.5-0.4-0.7c-0.2-0.2-0.5-0.3-0.7-0.3h0.1c-0.3-0.1-0.7,0.1-0.9,0.4c-0.1,0.2-0.3,0.5-0.3,0.8
		c-0.1,0.5-0.1,1-0.1,1.5c0,1,0,1.9,0,2.7c0.1,1.4,0.3,2.9,0.5,4.3c0.2,1.2,0.3,2.1,0.4,2.7c0,0.2-0.1,0.4-0.3,0.5
		C575.7,157.2,575.7,157.2,575.7,157.2z"/>
	<path class="st8" d="M510.5,208.2c-2,0-3.9,0.2-5.8,0.7c-5.2,1.4-14.1,6.8-14.5,13.4h6.5c0,0-3.6,7.7-2.6,7
		c2.8-1.9,8.3-7.4,8.3-7.4L510.5,208.2z"/>
	<path class="st12" d="M598.9,92c-0.2,0-0.7-5.3-1.3-12s-0.9-12-0.8-12s0.7,5.3,1.3,12S599,92,598.9,92z"/>
	<path class="st12" d="M627.3,68.4c0.1,0.1-4.3,6.4-9.8,14.2s-10.1,14-10.2,13.9s4.3-6.4,9.8-14.2S627.2,68.3,627.3,68.4z"/>
	<path class="st12" d="M639.1,97.2c0,0.1-5.1,1.3-11.4,2.6s-11.5,2.2-11.5,2.1s5.1-1.3,11.4-2.6S639,97.1,639.1,97.2z"/>
</g>
<g id="freepik--Folder--inject-2">
	<path class="st3" d="M299,234.5l-35.4,181.8l-4.6,23.8l236-1.1c10.6,0,20-9.5,23.4-23.4l41.9-171.6c2.6-10.6-3.1-21.6-11.1-21.6
		l-238.9,0.3C305,222.5,300.3,227.4,299,234.5z"/>
	<g class="st13">
		<path d="M299,234.5l-35.4,181.8l-4.6,23.8l236-1.1c10.6,0,20-9.5,23.4-23.4l41.9-171.6c2.6-10.6-3.1-21.6-11.1-21.6l-238.9,0.3
			C305,222.5,300.3,227.4,299,234.5z"/>
	</g>
	<path class="st3" d="M472.4,404l-25-201.4c-1-8.3-7.6-14.4-15.4-14.4l-54.8,0.2c-4.1,0-8,1.8-10.8,4.8l-26,27.7L188,221.7
		c-9.3,0.1-16.5,8.9-15.2,18.8L196,426.6c1,8.2,7.6,14.4,15.3,14.4l265.6-0.5c29.6,0.6,32.4-8.1,32.4-8.1
		C475.4,439.8,472.4,404,472.4,404z"/>
	<g class="st13">
		<polygon class="st14" points="357.8,363.7 348.9,373.3 279.9,311.3 288.8,301.6 		"/>
		<polygon class="st14" points="345.1,299.5 355,308.4 292.6,375.5 282.7,366.6 		"/>
	</g>
</g>
<g id="freepik--speech-bubble--inject-2">
	<path class="st15" d="M510.3,103.8c-0.7-0.3-1.1-0.9-1.1-1.6l-0.4-9.3c-0.1-1,0.7-1.9,1.8-1.9c0.2,0,0.4,0,0.5,0
		c1.6,0.3,3.2,0,4.5-0.9c1.2-0.8,2.1-2,2.3-3.4c0.2-1.4-0.2-2.9-1.1-4c-0.9-1.3-2.4-2.1-3.9-2.4c-3.2-0.2-6.2,1.9-7.1,5
		c-0.3,1-1.4,1.5-2.4,1.2c-0.9-0.3-1.5-1.3-1.2-2.2c1.4-4.9,6-8.1,11.1-7.8c2.6,0.3,4.9,1.7,6.5,3.8c1.5,1.9,2.2,4.4,1.8,6.9
		c-0.5,2.4-1.9,4.6-4,5.9c-1.5,1-3.3,1.6-5.1,1.7l0.3,7.2c0,1-0.8,1.9-1.8,1.9C510.8,103.9,510.5,103.8,510.3,103.8L510.3,103.8z"/>
	<path class="st15" d="M513.1,107.6c0.1,0.8-0.6,1.6-1.4,1.6s-1.6-0.6-1.6-1.4c-0.1-0.8,0.6-1.6,1.4-1.6c0,0,0,0,0,0
		C512.3,106.1,513,106.7,513.1,107.6C513.1,107.6,513.1,107.6,513.1,107.6z"/>
	<path class="st16" d="M478.2,90.7c0-0.2,0.1-0.4,0.1-0.6c0-0.4,0.1-1,0.2-1.8c0.1-1,0.3-1.9,0.5-2.9c0.1-0.6,0.2-1.2,0.4-1.8
		s0.4-1.3,0.6-2c1.2-3.4,2.8-6.6,5-9.5c2.8-3.7,6.4-6.9,10.5-9.1c2.3-1.3,4.8-2.3,7.4-3.1c2.8-0.7,5.7-1.1,8.5-1.1
		c1.5,0,3,0.1,4.6,0.2c0.8,0.1,1.5,0.3,2.3,0.4c0.8,0.1,1.5,0.3,2.3,0.6c3.2,0.9,6.2,2.2,8.9,4c6.1,4,10.7,9.8,13.2,16.6
		c1.3,3.7,2,7.5,2,11.4c0,4-0.7,8-2.1,11.7l-0.5,1.1l-0.1,0.2l0.1,0.2c2.5,5.8,5,11.4,7.3,16.9l0.4-0.5l-15-5.8l-0.2-0.1l-0.2,0.1
		c-4,3.8-8.8,6.6-14.1,8.2c-9.2,2.5-19,1-27-4.2c-3.2-2.1-6.1-4.8-8.4-7.8c-3.4-4.5-5.6-9.8-6.4-15.3c-0.1-1-0.2-1.8-0.3-2.6
		s0-1.4,0-1.9s0-0.9,0-1.2c0.1,0,0.2-0.1,0.2-0.2C478.4,90.7,478.3,90.6,478.2,90.7c-0.1,0-0.2,0.1-0.1,0.2c0,0.1,0.1,0.2,0.2,0.2
		c0,0.3,0,0.7,0,1.2s0,1.2,0,1.9s0.2,1.6,0.3,2.6c0.3,2.4,0.9,4.8,1.7,7.1c1.1,3,2.7,5.9,4.6,8.5c2.4,3.1,5.2,5.8,8.5,8
		c8.1,5.3,18.1,6.9,27.4,4.4c5.4-1.5,10.3-4.4,14.3-8.2l-0.3,0.1l15,5.8l0.8,0.3l-0.3-0.8c-2.4-5.5-4.8-11.2-7.3-16.9v0.3l0.5-1.2
		c1.5-3.8,2.2-7.9,2.1-12c0-4-0.6-7.9-2-11.7c-2.5-7-7.3-12.9-13.5-16.9c-2.8-1.8-5.9-3.2-9.1-4.1c-0.8-0.2-1.5-0.4-2.3-0.5
		c-0.8-0.1-1.5-0.3-2.3-0.4c-1.5-0.2-3.1-0.3-4.6-0.3c-2.9,0-5.9,0.4-8.7,1.2c-2.6,0.7-5.1,1.8-7.5,3.1c-4.1,2.3-7.7,5.5-10.6,9.3
		c-2.1,2.9-3.8,6.2-4.9,9.7c-0.2,0.7-0.4,1.4-0.6,2c-0.2,0.6-0.3,1.2-0.4,1.8c-0.2,1-0.4,1.9-0.4,2.9c-0.1,0.8-0.1,1.4-0.1,1.8
		C478.2,90.2,478.2,90.5,478.2,90.7z"/>
</g>
</svg>
